<svg width="33" height="32" viewBox="0 0 33 32" fill="none" xmlns="http://www.w3.org/2000/svg">
<path fill-rule="evenodd" clip-rule="evenodd" d="M7.00065 14.6667C7.00065 10.2547 10.5887 6.66667 15.0007 6.66667C19.4127 6.66667 23.0007 10.2547 23.0007 14.6667C23.0007 19.0787 19.4127 22.6667 15.0007 22.6667C10.5887 22.6667 7.00065 19.0787 7.00065 14.6667ZM27.9433 25.724L23.4167 21.196C24.8207 19.3907 25.6673 17.128 25.6673 14.6667C25.6673 8.78533 20.882 4 15.0007 4C9.11932 4 4.33398 8.78533 4.33398 14.6667C4.33398 20.548 9.11932 25.3333 15.0007 25.3333C17.462 25.3333 19.7247 24.4867 21.53 23.0827L26.058 27.6093C26.318 27.8693 26.6593 28 27.0007 28C27.342 28 27.6833 27.8693 27.9433 27.6093C28.4647 27.088 28.4647 26.2453 27.9433 25.724Z" fill="#2079C3"/>
</svg>
