<svg width="33" height="32" viewBox="0 0 33 32" fill="none" xmlns="http://www.w3.org/2000/svg">
<path fill-rule="evenodd" clip-rule="evenodd" d="M16.3334 18C15.2307 18 14.3334 17.1027 14.3334 16C14.3334 14.8973 15.2307 14 16.3334 14C17.4361 14 18.3334 14.8973 18.3334 16C18.3334 17.1027 17.4361 18 16.3334 18ZM16.3334 11.3333C13.7601 11.3333 11.6667 13.4267 11.6667 16C11.6667 18.5733 13.7601 20.6667 16.3334 20.6667C18.9067 20.6667 21.0001 18.5733 21.0001 16C21.0001 13.4267 18.9067 11.3333 16.3334 11.3333ZM16.6263 22.6635C10.885 22.7968 7.13967 17.8861 5.897 15.9941C7.265 13.8541 10.7103 9.47281 16.041 9.33681C21.7597 9.19147 25.5263 14.1141 26.769 16.0061C25.4023 18.1461 21.9557 22.5275 16.6263 22.6635ZM29.4903 15.3368C28.6397 13.8541 23.941 6.42214 15.973 6.67147C8.60233 6.85814 4.31567 13.3515 3.177 15.3368C2.941 15.7475 2.941 16.2528 3.177 16.6635C4.01567 18.1261 8.549 25.3328 16.3663 25.3328C16.4757 25.3328 16.585 25.3315 16.6943 25.3288C24.0637 25.1408 28.3517 18.6488 29.4903 16.6635C29.725 16.2528 29.725 15.7475 29.4903 15.3368Z" fill="#FFAA00"/>
</svg>
