<svg width="33" height="32" viewBox="0 0 33 32" fill="none" xmlns="http://www.w3.org/2000/svg">
<path fill-rule="evenodd" clip-rule="evenodd" d="M13.7817 2.12513C13.9957 1.64362 14.4732 1.33331 15.0001 1.33331C16.4146 1.33331 17.7711 1.89522 18.7713 2.89541C19.7715 3.8956 20.3334 5.25216 20.3334 6.66665V10.6666H26.5399C27.1169 10.6613 27.6883 10.7809 28.2148 11.0172C28.7438 11.2546 29.2149 11.6042 29.5954 12.0418C29.9759 12.4793 30.2567 12.9944 30.4183 13.5512C30.58 14.1081 30.6187 14.6934 30.5316 15.2667L28.6917 27.2666C28.6916 27.2669 28.6917 27.2662 28.6917 27.2666C28.5468 28.22 28.0623 29.09 27.3275 29.7146C26.5945 30.3376 25.6616 30.6756 24.6998 30.6666H5.66675C4.60588 30.6666 3.58847 30.2452 2.83832 29.4951C2.08818 28.7449 1.66675 27.7275 1.66675 26.6666V17.3333C1.66675 16.2724 2.08818 15.255 2.83832 14.5049C3.58847 13.7547 4.60588 13.3333 5.66675 13.3333H8.80025L13.7817 2.12513ZM11.0001 14.9496L15.8105 4.12611C16.2124 4.25431 16.5819 4.47724 16.8857 4.78103C17.3858 5.28112 17.6667 5.9594 17.6667 6.66665V12C17.6667 12.7364 18.2637 13.3333 19.0001 13.3333H26.5467L26.5618 13.3332C26.7551 13.331 26.9466 13.3709 27.1229 13.45C27.2992 13.5292 27.4563 13.6457 27.5831 13.7916C27.7099 13.9374 27.8035 14.1091 27.8574 14.2947C27.9112 14.4802 27.9242 14.6751 27.8953 14.866C27.8953 14.8659 27.8952 14.8662 27.8953 14.866L26.0552 26.8667C26.0069 27.1847 25.8454 27.4745 25.6004 27.6827C25.3554 27.891 25.0434 28.0037 24.7218 28.0001L11.0001 28V14.9496ZM8.33341 28V16H5.66675C5.31313 16 4.97399 16.1405 4.72394 16.3905C4.47389 16.6406 4.33341 16.9797 4.33341 17.3333V26.6666C4.33341 27.0203 4.47389 27.3594 4.72394 27.6095C4.97399 27.8595 5.31313 28 5.66675 28H8.33341Z" fill="#0CA750"/>
</svg>
