<svg width="88" height="24" viewBox="0 0 88 24" fill="none" xmlns="http://www.w3.org/2000/svg">
<path d="M20.0104 3.17055C15.4597 -1.06079 8.3299 -1.06079 3.80273 3.19423C-0.285436 7.02691 -1.07328 13.0187 1.4196 17.6881C1.44312 17.7552 1.46272 17.8184 1.46272 17.8855L1.22362 22.3813C1.2001 22.6023 1.4 22.776 1.59598 22.7563L6.05651 22.5155C6.12315 22.5155 6.18586 22.5392 6.2525 22.5589C10.7797 25.0259 16.5297 24.3193 20.3357 20.4867C25.1059 15.683 24.9961 7.84002 20.0104 3.17055ZM11.4578 19.1881C7.8713 18.9473 4.96294 15.9948 4.78656 12.3595C4.78656 12.249 4.78656 12.1385 4.78656 12.0516C4.78656 10.8398 5.5744 9.82543 6.66798 9.51755C6.99722 9.43072 7.32255 9.43072 7.6518 9.45045L8.92176 9.60439C10.9129 9.84517 12.9472 9.84517 14.9345 9.60439L16.224 9.45045C16.4435 9.42677 16.663 9.40703 16.8786 9.45045C18.1015 9.64781 19.0422 10.6859 19.0422 11.9608V11.9845C19.0697 16.1251 15.6126 19.4525 11.4578 19.1881Z" fill="url(#paint0_linear_3177_7630)"/>
<path d="M30.5693 23.488V21.856L32.0382 21.504C32.0595 20.736 32.0701 19.9253 32.0701 19.072C32.0701 18.1973 32.0701 17.4293 32.0701 16.768V14.784C32.0701 14.1867 32.0595 13.7067 32.0382 13.344C32.0382 12.9813 32.0276 12.64 32.0063 12.32C32.0063 12 31.9956 11.6267 31.9743 11.2L30.25 10.912V9.6L37.307 7.392L37.8818 7.744L38.0414 9.952C38.9142 8.928 39.7126 8.24533 40.4363 7.904C41.1814 7.56267 42.001 7.392 42.8951 7.392C44.2788 7.392 45.4284 7.85067 46.3438 8.768C47.2592 9.664 47.7169 10.9867 47.7169 12.736V16.768C47.7169 17.4507 47.7169 18.2293 47.7169 19.104C47.7169 19.9787 47.7275 20.8 47.7488 21.568L49.09 21.856V23.488H40.2448V21.856L41.6178 21.536C41.6391 20.768 41.6498 19.9467 41.6498 19.072C41.6498 18.1973 41.6498 17.4293 41.6498 16.768V13.152C41.6498 12.2987 41.5327 11.7013 41.2985 11.36C41.0856 10.9973 40.7237 10.816 40.2128 10.816C39.6168 10.816 38.9249 11.0933 38.1372 11.648V16.768C38.1372 17.4293 38.1372 18.208 38.1372 19.104C38.1372 19.9787 38.1479 20.8107 38.1692 21.6L39.3826 21.856V23.488H30.5693Z" fill="url(#paint1_linear_3177_7630)"/>
<path d="M50.1049 23.488V21.856L51.5418 21.536C51.5631 20.7467 51.5738 19.9253 51.5738 19.072C51.5738 18.1973 51.5738 17.4293 51.5738 16.768V15.232C51.5738 14.3573 51.5631 13.632 51.5418 13.056C51.5418 12.4587 51.5205 11.84 51.478 11.2L49.7536 10.912V9.6L57.1619 7.392L57.7367 7.744L57.6409 12.512V16.768C57.6409 17.4293 57.6409 18.208 57.6409 19.104C57.6409 19.9787 57.6515 20.8 57.6728 21.568L59.0139 21.856V23.488H50.1049ZM54.5434 5.504C53.7345 5.504 53.0426 5.248 52.4679 4.736C51.8931 4.20267 51.6057 3.54133 51.6057 2.752C51.6057 1.94133 51.8931 1.28 52.4679 0.768C53.0426 0.256 53.7345 0 54.5434 0C55.3524 0 56.0443 0.256 56.619 0.768C57.1938 1.28 57.4812 1.94133 57.4812 2.752C57.4812 3.54133 57.1938 4.20267 56.619 4.736C56.0443 5.248 55.3524 5.504 54.5434 5.504Z" fill="url(#paint2_linear_3177_7630)"/>
<path d="M66.2908 24C64.7155 24 63.4914 23.6373 62.6186 22.912C61.7458 22.1653 61.3094 20.9387 61.3094 19.232C61.3094 18.6133 61.3094 18.048 61.3094 17.536C61.3307 17.0027 61.3413 16.4267 61.3413 15.808V10.304H59.5212V8.192L61.6926 7.904L63.6085 3.36H67.4084V7.904H70.3462V10.304H67.4084V18.88C67.4084 19.6053 67.5574 20.1387 67.8555 20.48C68.1535 20.8213 68.5261 20.992 68.9731 20.992C69.4627 20.992 69.9843 20.7787 70.5378 20.352L71.3361 21.088C70.9103 22.0053 70.293 22.72 69.484 23.232C68.6751 23.744 67.6107 24 66.2908 24Z" fill="url(#paint3_linear_3177_7630)"/>
<path d="M79.5699 24C77.7391 24 76.1958 23.6373 74.9398 22.912C73.6838 22.1653 72.7364 21.152 72.0978 19.872C71.4592 18.592 71.1398 17.1627 71.1398 15.584C71.1398 13.984 71.5017 12.576 72.2255 11.36C72.9493 10.1227 73.9392 9.152 75.1952 8.448C76.4725 7.744 77.9307 7.392 79.5699 7.392C81.2091 7.392 82.6567 7.744 83.9127 8.448C85.19 9.13067 86.1905 10.0907 86.9143 11.328C87.6381 12.544 88 13.9627 88 15.584C88 17.2053 87.67 18.656 87.0101 19.936C86.3715 21.1947 85.4241 22.1867 84.1681 22.912C82.9334 23.6373 81.4007 24 79.5699 24ZM79.5699 22.24C80.2724 22.24 80.7833 21.728 81.1027 20.704C81.4433 19.68 81.6136 18.0053 81.6136 15.68C81.6136 13.3547 81.4433 11.6907 81.1027 10.688C80.7833 9.664 80.2724 9.152 79.5699 9.152C78.8674 9.152 78.3459 9.664 78.0052 10.688C77.6859 11.6907 77.5263 13.3547 77.5263 15.68C77.5263 18.0053 77.6859 19.68 78.0052 20.704C78.3459 21.728 78.8674 22.24 79.5699 22.24Z" fill="url(#paint4_linear_3177_7630)"/>
<defs>
<linearGradient id="paint0_linear_3177_7630" x1="0.000696706" y1="12.0003" x2="23.832" y2="12.0003" gradientUnits="userSpaceOnUse">
<stop stop-color="#FFC800"/>
<stop offset="1" stop-color="#FFAA00"/>
</linearGradient>
<linearGradient id="paint1_linear_3177_7630" x1="29.8349" y1="-0.511964" x2="88.4127" y2="23.4009" gradientUnits="userSpaceOnUse">
<stop stop-color="#00C8DC"/>
<stop offset="1" stop-color="#00AAB4"/>
</linearGradient>
<linearGradient id="paint2_linear_3177_7630" x1="29.8349" y1="-0.511964" x2="88.4127" y2="23.4009" gradientUnits="userSpaceOnUse">
<stop stop-color="#00C8DC"/>
<stop offset="1" stop-color="#00AAB4"/>
</linearGradient>
<linearGradient id="paint3_linear_3177_7630" x1="29.8349" y1="-0.511964" x2="88.4127" y2="23.4009" gradientUnits="userSpaceOnUse">
<stop stop-color="#00C8DC"/>
<stop offset="1" stop-color="#00AAB4"/>
</linearGradient>
<linearGradient id="paint4_linear_3177_7630" x1="29.8349" y1="-0.511964" x2="88.4127" y2="23.4009" gradientUnits="userSpaceOnUse">
<stop stop-color="#00C8DC"/>
<stop offset="1" stop-color="#00AAB4"/>
</linearGradient>
</defs>
</svg>
