<svg width="33" height="32" viewBox="0 0 33 32" fill="none" xmlns="http://www.w3.org/2000/svg">
<path fill-rule="evenodd" clip-rule="evenodd" d="M16.3335 5.52869L7.00016 10.7794V10.9727C7.00016 17.2927 10.4215 23.1447 15.9308 26.2447L16.3335 26.4714L16.7362 26.2447C22.2455 23.1447 25.6668 17.2927 25.6668 10.9727V10.7794L16.3335 5.52869ZM16.3335 29.134C15.8815 29.134 15.4295 29.022 15.0282 28.7954L14.6242 28.5674C8.27616 24.998 4.3335 18.2554 4.3335 10.9727V10.7794C4.3335 9.82069 4.8535 8.93002 5.69083 8.45669L15.0268 3.20602C15.8335 2.75269 16.8348 2.75136 17.6388 3.20469L26.9735 8.45536C27.8135 8.93002 28.3335 9.82069 28.3335 10.7794V10.9727C28.3335 18.2554 24.3908 24.998 18.0428 28.5674L17.6402 28.794C17.2375 29.0207 16.7855 29.134 16.3335 29.134Z" fill="#2079C3"/>
</svg>
