<svg width="33" height="32" viewBox="0 0 33 32" fill="none" xmlns="http://www.w3.org/2000/svg">
<path fill-rule="evenodd" clip-rule="evenodd" d="M9.66742 14.6657C9.66742 13.9297 10.2648 13.3323 11.0008 13.3323C11.7368 13.3323 12.3341 13.9297 12.3341 14.6657C12.3341 15.4017 11.7368 15.999 11.0008 15.999C10.2648 15.999 9.66742 15.4017 9.66742 14.6657ZM16.3341 13.3323C15.5981 13.3323 15.0008 13.9297 15.0008 14.6657C15.0008 15.4017 15.5981 15.999 16.3341 15.999C17.0701 15.999 17.6674 15.4017 17.6674 14.6657C17.6674 13.9297 17.0701 13.3323 16.3341 13.3323ZM21.6674 13.3323C20.9314 13.3323 20.3341 13.9297 20.3341 14.6657C20.3341 15.4017 20.9314 15.999 21.6674 15.999C22.4034 15.999 23.0008 15.4017 23.0008 14.6657C23.0008 13.9297 22.4034 13.3323 21.6674 13.3323ZM26.8653 16.3922C26.1893 20.7309 22.692 24.3295 18.36 25.1415C16.268 25.5362 14.1373 25.3109 12.204 24.4922C11.656 24.2602 11.0893 24.1429 10.5333 24.1429C10.28 24.1429 10.0293 24.1669 9.78262 24.2162L6.03329 24.9655L6.78396 21.2095C6.94129 20.4295 6.84529 19.5949 6.50796 18.7962C5.68929 16.8629 5.46529 14.7335 5.85862 12.6402C6.67062 8.30821 10.268 4.81087 14.608 4.13487C18.0613 3.59754 21.4386 4.68554 23.876 7.12287C26.3146 9.56154 27.404 12.9402 26.8653 16.3922ZM25.7626 5.23754C22.716 2.19221 18.5026 0.833541 14.1973 1.49887C8.76129 2.34687 4.25462 6.72554 3.23729 12.1482C2.74662 14.7589 3.02929 17.4175 4.05196 19.8349C4.18129 20.1429 4.22129 20.4295 4.17062 20.6869L3.02662 26.4042C2.93862 26.8415 3.07596 27.2935 3.39196 27.6082C3.64396 27.8615 3.98396 27.9989 4.33462 27.9989C4.42129 27.9989 4.50796 27.9909 4.59596 27.9735L10.3066 26.8309C10.6346 26.7682 10.952 26.8602 11.164 26.9482C13.584 27.9709 16.2426 28.2522 18.8506 27.7629C24.2746 26.7455 28.6533 22.2389 29.5013 16.8029C30.1706 12.5002 28.8093 8.28421 25.7626 5.23754Z" fill="#FFAA00"/>
</svg>
