<svg width="33" height="32" viewBox="0 0 33 32" fill="none" xmlns="http://www.w3.org/2000/svg">
<path fill-rule="evenodd" clip-rule="evenodd" d="M11.0002 13.3333C12.1042 13.3333 13.0002 12.4373 13.0002 11.3333C13.0002 10.2293 12.1042 9.33333 11.0002 9.33333C9.89616 9.33333 9.00016 10.2293 9.00016 11.3333C9.00016 12.4373 9.89616 13.3333 11.0002 13.3333ZM24.3335 25.3333H9.0815L18.4215 17.54C18.7495 17.2613 19.3442 17.2627 19.6655 17.5387L25.6668 22.6587V24C25.6668 24.736 25.0695 25.3333 24.3335 25.3333ZM8.3335 6.66667H24.3335C25.0695 6.66667 25.6668 7.264 25.6668 8V19.152L21.3962 15.5093C20.0762 14.3867 18.0108 14.3867 16.7028 15.5013L7.00016 23.5973V8C7.00016 7.264 7.5975 6.66667 8.3335 6.66667ZM24.3335 4H8.3335C6.12816 4 4.3335 5.79467 4.3335 8V24C4.3335 26.2053 6.12816 28 8.3335 28H24.3335C26.5388 28 28.3335 26.2053 28.3335 24V8C28.3335 5.79467 26.5388 4 24.3335 4Z" fill="#FFAA00"/>
</svg>
