<svg width="33" height="32" viewBox="0 0 33 32" fill="none" xmlns="http://www.w3.org/2000/svg">
<path fill-rule="evenodd" clip-rule="evenodd" d="M9.49482 17.0664H16.3335C16.7122 17.0664 17.0735 17.2277 17.3255 17.5091C17.5775 17.7904 17.6988 18.1664 17.6588 18.5424L17.0602 24.0757L23.1722 14.9331H16.3335C15.9548 14.9331 15.5935 14.7717 15.3415 14.4904C15.0882 14.2091 14.9668 13.8331 15.0082 13.4571L15.6068 7.92505L9.49482 17.0664ZM15.1482 30.6664C14.9962 30.6664 14.8428 30.6411 14.6922 30.5864C14.1162 30.3757 13.7562 29.7997 13.8228 29.1904L14.8482 19.7331H7.00015C6.50815 19.7331 6.05615 19.4624 5.82415 19.0291C5.59215 18.5944 5.61882 18.0677 5.89215 17.6584L16.4108 1.92639C16.7508 1.41439 17.3962 1.20372 17.9735 1.41439C18.5508 1.62372 18.9108 2.20105 18.8442 2.81039L17.8188 12.2664H25.6668C26.1588 12.2664 26.6108 12.5384 26.8428 12.9717C27.0748 13.4064 27.0482 13.9317 26.7748 14.3411L16.2562 30.0744C16.0042 30.4531 15.5828 30.6664 15.1482 30.6664Z" fill="#C63434"/>
</svg>
