<svg width="33" height="32" viewBox="0 0 33 32" fill="none" xmlns="http://www.w3.org/2000/svg">
<path fill-rule="evenodd" clip-rule="evenodd" d="M24.3338 13.3333C24.3338 12.5987 23.7365 12 23.0005 12C22.2645 12 21.6672 12.5987 21.6672 13.3333C21.6672 14.068 22.2645 14.6667 23.0005 14.6667C23.7365 14.6667 24.3338 14.068 24.3338 13.3333ZM27.0005 13.3333C27.0005 15.5387 25.2058 17.3333 23.0005 17.3333C20.7952 17.3333 19.0005 15.5387 19.0005 13.3333C19.0005 11.128 20.7952 9.33333 23.0005 9.33333C25.2058 9.33333 27.0005 11.128 27.0005 13.3333ZM15.0005 9.33333C15.0005 7.86267 13.8045 6.66667 12.3338 6.66667C10.8632 6.66667 9.66715 7.86267 9.66715 9.33333C9.66715 10.804 10.8632 12 12.3338 12C13.8045 12 15.0005 10.804 15.0005 9.33333ZM17.6672 9.33333C17.6672 12.2747 15.2752 14.6667 12.3338 14.6667C9.39249 14.6667 7.00049 12.2747 7.00049 9.33333C7.00049 6.392 9.39249 4 12.3338 4C15.2752 4 17.6672 6.392 17.6672 9.33333ZM18.9205 20.0613C20.0792 19.1653 21.5058 18.6667 23.0005 18.6667C26.6765 18.6667 29.6672 21.6573 29.6672 25.3333C29.6672 26.0693 29.0712 26.6667 28.3338 26.6667C27.5965 26.6667 27.0005 26.0693 27.0005 25.3333C27.0005 23.128 25.2058 21.3333 23.0005 21.3333C22.0898 21.3333 21.2245 21.6453 20.5258 22.1987C21.2512 23.5267 21.6672 25.0493 21.6672 26.6667C21.6672 27.4027 21.0712 28 20.3338 28C19.5965 28 19.0005 27.4027 19.0005 26.6667C19.0005 22.9907 16.0098 20 12.3338 20C8.65782 20 5.66716 22.9907 5.66716 26.6667C5.66716 27.4027 5.07116 28 4.33382 28C3.59649 28 3.00049 27.4027 3.00049 26.6667C3.00049 21.52 7.18849 17.3333 12.3338 17.3333C14.9032 17.3333 17.2312 18.3773 18.9205 20.0613Z" fill="#6F5ED3"/>
</svg>
