<svg width="33" height="32" viewBox="0 0 33 32" fill="none" xmlns="http://www.w3.org/2000/svg">
<path d="M21.6668 27.9999C21.4028 27.9999 21.1388 27.9213 20.9135 27.7666L12.3642 21.9053H12.3364L12.3364 26.6667C12.3364 27.4 11.7358 28 11.0016 28C10.2675 28 9.66683 27.4 9.66683 26.6667L9.66683 21.9053H5.66683C4.93083 21.9053 4.3335 21.3079 4.3335 20.5719V11.4279C4.3335 10.6919 4.93083 10.0946 5.66683 10.0946H12.3642L20.9135 4.23326C21.3202 3.95326 21.8495 3.92126 22.2882 4.15326C22.7255 4.38392 23.0002 4.83859 23.0002 5.33326V26.6666C23.0002 27.1613 22.7255 27.6159 22.2882 27.8466C22.0935 27.9493 21.8802 27.9999 21.6668 27.9999Z" fill="#0CA750"/>
<path d="M25.6668 12V20C25.6668 20.7334 26.2675 21.3334 27.0016 21.3334C27.7358 21.3334 28.3364 20.7334 28.3364 20V12C28.3364 11.2667 27.7358 10.6667 27.0016 10.6667C26.2675 10.6667 25.6668 11.2667 25.6668 12Z" fill="#0CA750"/>
</svg>
