<svg width="33" height="32" viewBox="0 0 33 32" fill="none" xmlns="http://www.w3.org/2000/svg">
<path fill-rule="evenodd" clip-rule="evenodd" d="M24.3335 25.3334C22.8628 25.3334 21.6668 24.1374 21.6668 22.6667C21.6668 21.196 22.8628 20 24.3335 20C25.8041 20 27.0001 21.196 27.0001 22.6667C27.0001 24.1374 25.8041 25.3334 24.3335 25.3334ZM8.33346 20C9.80412 20 11.0001 21.196 11.0001 22.6667C11.0001 24.1374 9.80412 25.3334 8.33346 25.3334C6.86279 25.3334 5.66679 24.1374 5.66679 22.6667C5.66679 21.196 6.86279 20 8.33346 20ZM16.3335 2.66669C8.98146 2.66669 3.00012 8.86669 3.00012 16.488V22.6667C3.00012 25.608 5.39212 28 8.33346 28C11.2748 28 13.6668 25.608 13.6668 22.6667C13.6668 19.7254 11.2748 17.3334 8.33346 17.3334C7.35746 17.3334 6.45479 17.616 5.66679 18.076V16.488C5.66679 10.3374 10.4521 5.33335 16.3335 5.33335C22.2148 5.33335 27.0001 10.3374 27.0001 16.488V18.076C26.2121 17.616 25.3095 17.3334 24.3335 17.3334C21.3921 17.3334 19.0001 19.7254 19.0001 22.6667C19.0001 25.608 21.3921 28 24.3335 28C27.2748 28 29.6668 25.608 29.6668 22.6667V16.488C29.6668 8.86669 23.6855 2.66669 16.3335 2.66669Z" fill="#6F5ED3"/>
</svg>
