<svg width="33" height="32" viewBox="0 0 33 32" fill="none" xmlns="http://www.w3.org/2000/svg">
<path fill-rule="evenodd" clip-rule="evenodd" d="M24.3335 13.3333C24.3335 12.5987 23.7361 12 23.0001 12C22.2641 12 21.6668 12.5987 21.6668 13.3333C21.6668 14.068 22.2641 14.6667 23.0001 14.6667C23.7361 14.6667 24.3335 14.068 24.3335 13.3333ZM27.0001 13.3333C27.0001 15.5387 25.2055 17.3333 23.0001 17.3333C20.7948 17.3333 19.0001 15.5387 19.0001 13.3333C19.0001 11.128 20.7948 9.33333 23.0001 9.33333C25.2055 9.33333 27.0001 11.128 27.0001 13.3333ZM15.0001 9.33333C15.0001 7.86267 13.8041 6.66667 12.3335 6.66667C10.8628 6.66667 9.66679 7.86267 9.66679 9.33333C9.66679 10.804 10.8628 12 12.3335 12C13.8041 12 15.0001 10.804 15.0001 9.33333ZM17.6668 9.33333C17.6668 12.2747 15.2748 14.6667 12.3335 14.6667C9.39212 14.6667 7.00012 12.2747 7.00012 9.33333C7.00012 6.392 9.39212 4 12.3335 4C15.2748 4 17.6668 6.392 17.6668 9.33333ZM18.9201 20.0613C20.0788 19.1653 21.5055 18.6667 23.0001 18.6667C26.6761 18.6667 29.6668 21.6573 29.6668 25.3333C29.6668 26.0693 29.0708 26.6667 28.3335 26.6667C27.5961 26.6667 27.0001 26.0693 27.0001 25.3333C27.0001 23.128 25.2055 21.3333 23.0001 21.3333C22.0895 21.3333 21.2241 21.6453 20.5255 22.1987C21.2508 23.5267 21.6668 25.0493 21.6668 26.6667C21.6668 27.4027 21.0708 28 20.3335 28C19.5961 28 19.0001 27.4027 19.0001 26.6667C19.0001 22.9907 16.0095 20 12.3335 20C8.65746 20 5.66679 22.9907 5.66679 26.6667C5.66679 27.4027 5.07079 28 4.33346 28C3.59612 28 3.00012 27.4027 3.00012 26.6667C3.00012 21.52 7.18812 17.3333 12.3335 17.3333C14.9028 17.3333 17.2308 18.3773 18.9201 20.0613Z" fill="#C63434"/>
</svg>
