<svg width="33" height="32" viewBox="0 0 33 32" fill="none" xmlns="http://www.w3.org/2000/svg">
<path fill-rule="evenodd" clip-rule="evenodd" d="M16.3328 21.3947C16.5448 21.3947 16.7568 21.4454 16.9501 21.5454L21.9754 24.1713L21.0194 18.6302C20.9434 18.1956 21.0888 17.7531 21.4061 17.4452L25.4541 13.5316L19.8501 12.7159C19.4168 12.6532 19.0421 12.3826 18.8474 11.9907L16.3328 6.93348L13.8181 11.9907C13.6234 12.3826 13.2488 12.6532 12.8154 12.7159L7.21143 13.5316L11.2594 17.4452C11.5768 17.7531 11.7221 18.1956 11.6461 18.6302L10.6901 24.1713L15.7154 21.5454C15.9088 21.4454 16.1208 21.3947 16.3328 21.3947ZM23.7487 27.9329C23.5367 27.9329 23.3247 27.8836 23.1314 27.7823L16.3327 24.2313L9.53406 27.7823C9.0834 28.0169 8.5394 27.9756 8.13273 27.677C7.72206 27.3784 7.51806 26.8732 7.6034 26.3734L8.8994 18.8715L3.40606 13.5596C3.0394 13.2064 2.90873 12.6759 3.06473 12.192C3.2194 11.7081 3.63806 11.3562 4.14073 11.2829L11.7421 10.1792L15.1381 3.3465C15.5887 2.44008 17.0767 2.44008 17.5274 3.3465L20.9234 10.1792L28.5247 11.2829C29.0274 11.3562 29.4461 11.7081 29.6007 12.192C29.7567 12.6759 29.6261 13.2064 29.2594 13.5596L23.7661 18.8715L25.0621 26.3734C25.1474 26.8732 24.9434 27.3784 24.5327 27.677C24.3021 27.8476 24.0261 27.9329 23.7487 27.9329Z" fill="#FFAA00"/>
</svg>
